<svg xmlns="http://www.w3.org/2000/svg" viewBox="8.94 160.31 466.3 108.46">
  <g transform="matrix(0.052188, 0, 0, -0.055967, -21.064741, 304.708282)" fill="#000000" stroke="none" style="">
    <path d="M4893 2565 c-18 -7 -51 -39 -75 -69 -49 -64 -31 -59 -288 -75 -202 -13 -316 -33 -426 -73 -174 -62 -280 -178 -314 -341 -35 -170 85 -327 250 -327 140 0 270 129 270 267 0 55 -13 103 -29 103 -6 0 -7 -15 -4 -35 8 -48 -22 -154 -59 -210 -42 -63 -89 -89 -159 -90 -64 0 -98 18 -136 74 -65 96 -23 275 95 403 68 73 179 130 307 158 82 17 414 54 421 47 2 -2 -32 -79 -75 -173 -43 -93 -95 -209 -116 -259 -21 -49 -43 -96 -48 -102 -5 -7 -28 -13 -51 -13 -45 0 -99 -27 -115 -59 -17 -30 2 -34 59 -11 57 23 80 25 80 9 0 -25 -85 -190 -144 -279 -69 -104 -201 -238 -288 -294 -82 -52 -185 -101 -278 -132 -77 -25 -98 -28 -220 -28 -150 0 -220 17 -312 75 -37 24 -56 30 -90 27 l-43 -3 51 -51 c103 -103 259 -158 444 -157 302 2 554 150 772 455 62 86 144 241 178 336 20 54 26 63 44 58 12 -2 131 -7 266 -11 135 -4 252 -9 261 -11 15 -4 10 -24 -31 -152 -83 -251 -86 -389 -11 -439 41 -28 82 -29 136 -4 45 20 120 96 163 165 l29 45 12 -53 c15 -67 45 -97 105 -103 37 -5 56 0 100 22 50 25 55 26 77 12 45 -30 99 -31 150 -4 l47 25 -14 -26 c-14 -27 -14 -27 27 -30 47 -4 63 7 91 62 45 90 134 215 199 278 64 63 128 108 130 91 4 -24 -8 -59 -53 -157 -62 -137 -79 -206 -57 -244 23 -41 44 -39 57 5 19 63 130 222 213 305 75 76 120 101 141 80 11 -11 10 -14 -61 -143 -77 -142 -76 -241 6 -275 67 -29 149 16 215 117 l33 51 7 -43 c15 -85 77 -134 168 -133 69 1 122 27 177 87 60 65 164 277 124 252 -6 -3 -31 -46 -57 -96 -73 -137 -154 -209 -238 -209 -68 0 -100 75 -74 174 13 49 13 49 73 66 161 44 271 150 263 253 -3 37 -8 44 -40 62 -33 18 -42 18 -85 7 -68 -18 -150 -77 -199 -145 -24 -32 -68 -108 -98 -170 -64 -131 -117 -204 -168 -232 -30 -16 -39 -17 -52 -6 -37 31 -9 128 102 346 43 82 79 153 80 157 8 18 -47 6 -107 -22 -89 -43 -174 -105 -253 -188 -38 -38 -68 -68 -68 -66 0 3 25 51 55 108 63 117 70 162 30 172 -14 3 -35 4 -47 0 -34 -8 -172 -122 -255 -210 -40 -42 -73 -74 -73 -71 0 12 95 174 137 233 l44 62 -55 0 c-54 0 -57 -2 -85 -40 -16 -22 -66 -113 -112 -201 -129 -250 -207 -319 -293 -256 -18 13 -17 17 32 75 78 94 115 180 120 278 5 97 -11 138 -63 160 -50 20 -75 18 -143 -16 -88 -44 -157 -124 -227 -262 -131 -256 -233 -351 -297 -276 -36 42 -18 181 53 403 37 116 41 125 65 125 41 0 107 20 134 40 l25 19 -82 -6 c-61 -4 -83 -3 -83 6 0 19 59 168 111 280 64 137 162 300 211 350 43 46 42 47 -29 26 -36 -11 -62 -28 -90 -58 -71 -76 -166 -258 -263 -501 l-44 -109 -110 7 c-61 3 -189 9 -283 12 -95 4 -173 10 -173 13 0 11 136 370 173 456 26 61 40 82 58 87 13 4 43 12 66 18 53 13 113 68 113 103 0 27 -32 57 -60 57 -8 -1 -29 -7 -47 -15z m45 -63 c3 -22 -17 -37 -69 -52 -38 -11 -36 -1 7 44 38 40 57 42 62 8z m2290 -742 c10 -88 -113 -213 -232 -236 l-39 -7 22 39 c96 171 239 288 249 204z m-1407 -11 c19 -19 21 -30 17 -95 -4 -59 -13 -89 -47 -160 -40 -85 -43 -87 -54 -64 -19 37 -75 35 -97 -2 -13 -25 -13 -32 2 -74 l16 -45 -31 -20 c-36 -21 -87 -25 -105 -7 -7 7 -12 35 -12 63 0 134 132 366 233 410 44 19 54 18 78 -6z" style="fill: rgb(255, 255, 255);"/>
    <path d="M1960 2553 c-98 -34 -190 -123 -275 -265 -27 -46 -91 -189 -143 -318 -51 -129 -97 -239 -102 -243 -12 -13 -152 -10 -197 3 -66 20 -116 61 -146 120 -25 49 -28 63 -24 126 3 58 10 84 39 135 57 104 127 152 271 183 15 4 27 11 27 18 0 17 -78 3 -157 -28 -170 -67 -260 -169 -262 -295 -3 -160 149 -290 356 -306 l72 -6 -41 -81 c-22 -45 -61 -116 -86 -159 l-45 -79 -101 7 c-312 21 -571 -95 -571 -254 0 -91 75 -152 197 -159 145 -9 309 86 440 256 41 53 42 54 84 47 84 -12 276 -65 351 -96 100 -42 217 -121 254 -172 40 -55 59 -125 49 -173 -4 -22 -10 -69 -13 -106 l-6 -66 57 4 c110 9 122 14 165 57 85 85 153 265 164 434 6 90 6 91 34 97 35 7 104 68 139 123 l27 43 7 -38 c9 -58 41 -101 92 -124 92 -40 204 0 278 101 42 57 122 219 112 228 -10 10 -21 -5 -64 -89 -75 -145 -154 -218 -238 -218 -61 0 -84 32 -83 114 2 98 7 107 67 122 98 25 150 54 205 114 88 95 96 175 21 206 -43 18 -80 12 -147 -24 -76 -41 -147 -126 -211 -252 -73 -146 -121 -216 -169 -251 -53 -38 -73 -37 -81 3 -4 18 -16 52 -27 76 -26 52 -32 35 112 322 121 241 215 403 294 508 l53 71 -41 6 c-51 8 -83 -4 -119 -41 -29 -31 -168 -301 -288 -559 -89 -192 -106 -221 -144 -236 -18 -8 -34 -26 -43 -48 -37 -89 -145 -152 -183 -106 -21 25 -5 78 80 278 44 104 80 197 80 208 0 17 -8 19 -65 19 -64 0 -64 0 -54 -23 9 -20 0 -51 -55 -191 -55 -140 -66 -178 -66 -228 0 -53 3 -63 29 -89 23 -23 38 -29 71 -29 42 0 107 27 129 54 21 25 44 20 38 -6 -7 -35 -121 -328 -127 -327 -3 0 -21 22 -40 50 -71 101 -271 220 -503 298 -65 21 -121 42 -124 45 -3 2 4 17 15 33 11 15 51 92 90 169 70 139 72 142 109 149 73 13 191 66 280 124 101 67 229 196 282 284 70 118 107 247 98 341 -5 58 -41 98 -104 115 -50 14 -69 13 -123 -6z m145 -93 c38 -42 -1 -221 -76 -346 -80 -134 -256 -286 -399 -345 -137 -56 -136 -66 -20 158 123 239 211 376 294 458 92 91 162 118 201 75z m813 -707 c4 -41 -28 -104 -79 -153 -51 -49 -179 -100 -179 -71 0 23 103 162 155 209 67 62 98 66 103 15z m-659 -415 c5 -13 12 -38 16 -57 7 -33 7 -34 -21 -27 -50 12 -58 27 -38 69 20 43 31 46 43 15z m-1125 -54 c29 -4 46 -12 46 -20 0 -8 -39 -54 -87 -102 -97 -97 -178 -144 -279 -163 -109 -20 -204 26 -204 100 0 28 8 43 44 77 89 85 299 132 480 108z m1146 -105 c0 -87 -41 -240 -92 -342 -34 -69 -103 -147 -129 -147 -54 0 -32 123 72 416 l50 140 49 -15 c47 -15 50 -18 50 -52z" style="fill: rgb(255, 255, 255);"/>
    <path d="M2045 1975 c-33 -32 -33 -79 -1 -100 63 -42 150 51 97 104 -28 28 -66 26 -96 -4z" style="fill: rgb(255, 255, 255);"/>
    <path d="M3070 1525 l0 -305 40 0 40 0 0 305 0 305 -40 0 -40 0 0 -305z" style="fill: rgb(255, 255, 255);"/>
    <path d="M3290 1525 l0 -305 35 0 35 0 1 248 c0 195 3 243 12 228 7 -10 77 -120 157 -245 l146 -226 47 -3 47 -3 0 305 0 306 -40 0 -40 0 -2 -240 -3 -240 -155 240 -154 240 -43 0 -43 0 0 -305z" style="fill: rgb(255, 255, 255);"/>
    <path d="M7300 1795 l0 -35 100 0 100 0 0 -270 0 -270 40 0 40 0 0 270 0 270 95 0 95 0 0 35 0 35 -235 0 -235 0 0 -35z" style="fill: rgb(255, 255, 255);"/>
    <path d="M7850 1525 l0 -305 220 0 220 0 0 35 0 35 -180 0 -180 0 0 105 0 105 165 0 165 0 0 35 0 35 -165 0 -165 0 0 95 0 95 175 0 175 0 0 35 0 35 -215 0 -215 0 0 -305z" style="fill: rgb(255, 255, 255);"/>
    <path d="M8442 1531 c-62 -165 -112 -302 -112 -306 0 -3 19 -5 41 -3 l42 3 30 88 30 87 123 0 122 0 33 -90 32 -90 44 0 c25 0 43 4 41 9 -1 4 -52 142 -113 304 l-110 297 -46 0 -46 0 -111 -299z m206 74 c23 -66 42 -123 42 -127 0 -5 -43 -8 -96 -8 -53 0 -94 4 -92 8 2 5 23 65 48 135 24 70 47 124 50 119 4 -4 26 -61 48 -127z" style="fill: rgb(255, 255, 255);"/>
    <path d="M8940 1525 l0 -305 35 0 35 0 0 258 1 257 85 -257 85 -258 39 0 38 0 68 203 c37 111 76 225 85 252 l18 50 0 -252 1 -253 40 0 40 0 0 305 0 305 -58 0 -57 0 -87 -255 -87 -256 -83 255 -83 256 -57 0 -58 0 0 -305z" style="fill: rgb(255, 255, 255);"/>
  </g>
</svg>