<svg xmlns="http://www.w3.org/2000/svg" viewBox="-203.72 -57.88 1440.01 128.42">
  <path fill="#7BB7BA" fill-opacity="1" d="M -203.716 -57.885 L -143.716 -57.885 C -83.716 -57.885 36.284 -57.885 156.284 -41.885 C 276.284 -25.885 396.284 6.115 516.284 22.115 C 636.284 38.115 756.284 38.115 876.284 27.415 C 996.284 17.115 1116.284 -4.885 1176.284 -15.185 L 1236.284 -25.885 L 1236.284 70.115 L 1176.284 70.115 C 1116.284 70.115 996.284 70.115 876.284 70.115 C 756.284 70.115 636.284 70.115 516.284 70.115 C 396.284 70.115 276.284 70.115 156.284 70.115 C 36.284 70.115 -83.716 70.115 -143.716 70.115 L -203.716 70.115 L -203.716 -57.885 Z"/>
  <path fill=" #689b9e" fill-opacity="1" d="M -203.723 6.535 L -143.723 1.235 C -83.723 -4.465 36.277 -14.465 156.277 -4.165 C 276.277 6.535 396.277 38.535 516.277 54.535 C 636.277 70.535 756.277 70.535 876.277 54.535 C 996.277 38.535 1116.277 6.535 1176.277 -9.465 L 1236.277 -25.465 L 1236.277 70.535 L 1176.277 70.535 C 1116.277 70.535 996.277 70.535 876.277 70.535 C 756.277 70.535 636.277 70.535 516.277 70.535 C 396.277 70.535 276.277 70.535 156.277 70.535 C 36.277 70.535 -83.723 70.535 -143.723 70.535 L -203.723 70.535 L -203.723 6.535 Z"/>
</svg>